<svg xmlns="http://www.w3.org/2000/svg" width="512" height="512" viewBox="0 0 512 512"><rect width="512" height="512" rx="112" fill="#1E1248"/><g transform="translate(48.65,350.56) scale(0.29096,-0.29096)" fill="#A99CFB"><g transform="translate(0,0)"><path d="M70.34370257966617 0V700H382.7587253414264Q536.3110773899848 700 618.7594840667678 630.7067526555387Q701.2078907435508 561.4135053110774 701.2078907435508 441.2754172989378Q701.2078907435508 361.8270106221548 663.2940060698027 304.4131259484067Q625.3801213960546 246.99924127465857 555.5868740515933 216.46471927162366Q485.79362670713203 185.93019726858876 389.6555386949924 185.93019726858876H180.24203338391501L268.48482549317146 269.2761760242792V0ZM502.9977238239757 0 329.1358118361153 254.6896813353566H539.7253414264037L715.2769347496206 0ZM268.48482549317146 247.6206373292868 180.24203338391501 338.79438543247346H378.0690440060698Q440.10242792109256 338.79438543247346 470.73975720789076 366.06980273141124Q501.3770864946889 393.345220030349 501.3770864946889 441.2754172989378Q501.3770864946889 489.51593323216997 470.73975720789076 516.636191198786Q440.10242792109256 543.7564491654022 378.0690440060698 543.7564491654022H180.24203338391501L268.48482549317146 635.2405159332321Z"/></g><g transform="translate(740,0)"><path d="M345.1729893778452 -8.758725341426404Q249.2071320182094 -8.758725341426404 177.5 27.620637329286797Q105.7928679817906 64 66.34446130500758 127.5690440060698Q26.896054628224583 191.1380880121396 26.896054628224583 271.5174506828528Q26.896054628224583 353.2761760242792 65.68930197268588 416.50037936267074Q104.48254931714719 479.7245827010622 172.1896813353566 515.4142640364189Q239.89681335356602 551.1039453717755 324.79362670713203 551.1039453717755Q404.86267071320185 551.1039453717755 470.72496206373296 518.3281487101669Q536.5872534142641 485.5523520485584 575.7598634294386 422.86267071320185Q614.932473444613 360.1729893778452 614.932473444613 270.2761760242792Q614.932473444613 259.8277693474962 614.0876327769347 246.8793626707132Q613.2427921092565 233.93095599393018 612.2427921092565 223.1722306525038H182.86418816388468V322.86267071320185H511.4825493171472L439.20561456752654 294.79362670713203Q439.51593323216997 331.7587253414264 425.0679059180577 358.75834597875564Q410.6198786039454 385.75796661608496 385.49962063732926 400.89567526555385Q360.3793626707132 416.03338391502274 326.1729893778452 416.03338391502274Q291.96661608497726 416.03338391502274 266.3463581183612 400.89567526555385Q240.72610015174507 385.75796661608496 226.77807283763278 358.603186646434Q212.83004552352048 331.448406676783 212.83004552352048 293.86267071320185V264.8277693474962Q212.83004552352048 225.17298937784523 229.6229135053111 195.98368740515934Q246.41578148710167 166.79438543247346 277.38088012139605 151.50151745068285Q308.34597875569045 136.20864946889225 350.9317147192716 136.20864946889225Q391.4142640364188 136.20864946889225 419.94840667678295 147.76024279210924Q448.4825493171472 159.31183611532626 475.7928679817906 182.72534142640365L575.7943854324734 78.6206373292868Q537.035660091047 35.9309559939302 479.9320940819423 13.586115326251896Q422.8285280728376 -8.758725341426404 345.1729893778452 -8.758725341426404Z"/></g></g></svg>
